# Blender v2.79 (sub 0) OBJ File: ''
# www.blender.org
mtllib sphere.mtl
o Icosphere_Icosphere.003
v 0.000000 -1.000000 0.000000
v 0.723607 -0.447220 0.525725
v -0.276388 -0.447220 0.850649
v -0.894426 -0.447216 0.000000
v -0.276388 -0.447220 -0.850649
v 0.723607 -0.447220 -0.525725
v 0.276388 0.447220 0.850649
v -0.723607 0.447220 0.525725
v -0.723607 0.447220 -0.525725
v 0.276388 0.447220 -0.850649
v 0.894426 0.447216 0.000000
v 0.000000 1.000000 0.000000
v -0.162456 -0.850654 0.499995
v 0.425323 -0.850654 0.309011
v 0.262869 -0.525738 0.809012
v 0.850648 -0.525736 0.000000
v 0.425323 -0.850654 -0.309011
v -0.525730 -0.850652 0.000000
v -0.688189 -0.525736 0.499997
v -0.162456 -0.850654 -0.499995
v -0.688189 -0.525736 -0.499997
v 0.262869 -0.525738 -0.809012
v 0.951058 0.000000 0.309013
v 0.951058 0.000000 -0.309013
v 0.000000 0.000000 1.000000
v 0.587786 0.000000 0.809017
v -0.951058 0.000000 0.309013
v -0.587786 0.000000 0.809017
v -0.587786 0.000000 -0.809017
v -0.951058 0.000000 -0.309013
v 0.587786 0.000000 -0.809017
v 0.000000 0.000000 -1.000000
v 0.688189 0.525736 0.499997
v -0.262869 0.525738 0.809012
v -0.850648 0.525736 0.000000
v -0.262869 0.525738 -0.809012
v 0.688189 0.525736 -0.499997
v 0.162456 0.850654 0.499995
v 0.525730 0.850652 0.000000
v -0.425323 0.850654 0.309011
v -0.425323 0.850654 -0.309011
v 0.162456 0.850654 -0.499995
v 0.000000 -0.700000 0.000000
v 0.506529 -0.313063 0.368012
v -0.193475 -0.313054 0.595456
v -0.626104 -0.313059 0.000000
v -0.193475 -0.313054 -0.595456
v 0.506529 -0.313063 -0.368012
v 0.193475 0.313054 0.595456
v -0.506529 0.313063 0.368012
v -0.506529 0.313063 -0.368012
v 0.193475 0.313054 -0.595456
v 0.626104 0.313059 0.000000
v 0.000000 0.700000 0.000000
v -0.113721 -0.595462 0.350000
v 0.297731 -0.595461 0.216311
v 0.184012 -0.368024 0.566316
v 0.595455 -0.368022 0.000000
v 0.297731 -0.595461 -0.216311
v -0.368016 -0.595459 0.000000
v -0.481741 -0.368023 0.350002
v -0.113721 -0.595462 -0.350000
v -0.481741 -0.368023 -0.350002
v 0.184012 -0.368024 -0.566316
v 0.665743 0.000000 0.216313
v 0.665743 0.000000 -0.216313
v 0.000000 0.000000 0.700000
v 0.411459 0.000000 0.566312
v -0.665743 0.000000 0.216313
v -0.411459 0.000000 0.566312
v -0.411459 0.000000 -0.566312
v -0.665743 0.000000 -0.216313
v 0.411459 0.000000 -0.566312
v 0.000000 0.000000 -0.700000
v 0.481741 0.368023 0.350002
v -0.184012 0.368024 0.566316
v -0.595455 0.368022 0.000000
v -0.184012 0.368024 -0.566316
v 0.481741 0.368023 -0.350002
v 0.113721 0.595462 0.350000
v 0.368016 0.595459 0.000000
v -0.297731 0.595461 0.216311
v -0.297731 0.595461 -0.216311
v 0.113721 0.595462 -0.350000
vn 0.1024 -0.9435 0.3151
vn 0.7002 -0.6617 0.2680
vn -0.2680 -0.9435 0.1947
vn -0.2680 -0.9435 -0.1947
vn 0.1024 -0.9435 -0.3151
vn 0.9050 -0.3304 0.2680
vn 0.0247 -0.3304 0.9435
vn -0.8897 -0.3304 0.3151
vn -0.5746 -0.3304 -0.7488
vn 0.5346 -0.3304 -0.7779
vn 0.8026 -0.1256 0.5831
vn -0.3066 -0.1256 0.9435
vn -0.9921 -0.1256 0.0000
vn -0.3066 -0.1256 -0.9435
vn 0.8026 -0.1256 -0.5831
vn 0.4089 0.6617 0.6284
vn -0.4713 0.6617 0.5831
vn -0.7002 0.6617 -0.2680
vn 0.0385 0.6617 -0.7488
vn 0.7240 0.6617 -0.1947
vn 0.2680 0.9435 -0.1947
vn 0.4911 0.7947 -0.3568
vn 0.4089 0.6617 -0.6284
vn -0.1024 0.9435 -0.3151
vn -0.1876 0.7947 -0.5773
vn -0.4713 0.6617 -0.5831
vn -0.3313 0.9435 0.0000
vn -0.6071 0.7947 0.0000
vn -0.7002 0.6617 0.2680
vn -0.1024 0.9435 0.3151
vn -0.1876 0.7947 0.5773
vn 0.0385 0.6617 0.7488
vn 0.2680 0.9435 0.1947
vn 0.4911 0.7947 0.3568
vn 0.7240 0.6617 0.1947
vn 0.8897 0.3304 -0.3151
vn 0.7947 0.1876 -0.5773
vn 0.5746 0.3304 -0.7488
vn -0.0247 0.3304 -0.9435
vn -0.3035 0.1876 -0.9342
vn -0.5346 0.3304 -0.7779
vn -0.9050 0.3304 -0.2680
vn -0.9822 0.1876 0.0000
vn -0.9050 0.3304 0.2680
vn -0.5346 0.3304 0.7779
vn -0.3035 0.1876 0.9342
vn -0.0247 0.3304 0.9435
vn 0.5746 0.3304 0.7488
vn 0.7947 0.1876 0.5773
vn 0.8897 0.3304 0.3151
vn 0.3066 0.1256 -0.9435
vn 0.3035 -0.1876 -0.9342
vn 0.0247 -0.3304 -0.9435
vn -0.8026 0.1256 -0.5831
vn -0.7947 -0.1876 -0.5773
vn -0.8897 -0.3304 -0.3151
vn -0.8026 0.1256 0.5831
vn -0.7947 -0.1876 0.5773
vn -0.5746 -0.3304 0.7488
vn 0.3066 0.1256 0.9435
vn 0.3035 -0.1876 0.9342
vn 0.5346 -0.3304 0.7779
vn 0.9921 0.1256 0.0000
vn 0.9822 -0.1876 0.0000
vn 0.9050 -0.3304 -0.2680
vn 0.4713 -0.6617 -0.5831
vn 0.1876 -0.7947 -0.5773
vn -0.0385 -0.6617 -0.7488
vn -0.4089 -0.6617 -0.6284
vn -0.4911 -0.7947 -0.3568
vn -0.7240 -0.6617 -0.1947
vn -0.7240 -0.6617 0.1947
vn -0.4911 -0.7947 0.3568
vn -0.4089 -0.6617 0.6284
vn 0.7002 -0.6617 -0.2680
vn 0.6071 -0.7947 0.0000
vn 0.3313 -0.9435 0.0000
vn -0.0385 -0.6617 0.7488
vn 0.1876 -0.7947 0.5773
vn 0.4713 -0.6617 0.5831
vn -0.0386 -0.6617 0.7488
vn -0.0386 -0.6617 -0.7488
vn 0.0386 0.6617 0.7488
vn 0.0386 0.6617 -0.7488
usemtl None
s off
f 1//1 14//1 13//1
f 2//2 14//2 16//2
f 1//3 13//3 18//3
f 1//4 18//4 20//4
f 1//5 20//5 17//5
f 2//6 16//6 23//6
f 3//7 15//7 25//7
f 4//8 19//8 27//8
f 5//9 21//9 29//9
f 6//10 22//10 31//10
f 2//11 23//11 26//11
f 3//12 25//12 28//12
f 4//13 27//13 30//13
f 5//14 29//14 32//14
f 6//15 31//15 24//15
f 7//16 33//16 38//16
f 8//17 34//17 40//17
f 9//18 35//18 41//18
f 10//19 36//19 42//19
f 11//20 37//20 39//20
f 39//21 42//21 12//21
f 39//22 37//22 42//22
f 37//23 10//23 42//23
f 42//24 41//24 12//24
f 42//25 36//25 41//25
f 36//26 9//26 41//26
f 41//27 40//27 12//27
f 41//28 35//28 40//28
f 35//29 8//29 40//29
f 40//30 38//30 12//30
f 40//31 34//31 38//31
f 34//32 7//32 38//32
f 38//33 39//33 12//33
f 38//34 33//34 39//34
f 33//35 11//35 39//35
f 24//36 37//36 11//36
f 24//37 31//37 37//37
f 31//38 10//38 37//38
f 32//39 36//39 10//39
f 32//40 29//40 36//40
f 29//41 9//41 36//41
f 30//42 35//42 9//42
f 30//43 27//43 35//43
f 27//44 8//44 35//44
f 28//45 34//45 8//45
f 28//46 25//46 34//46
f 25//47 7//47 34//47
f 26//48 33//48 7//48
f 26//49 23//49 33//49
f 23//50 11//50 33//50
f 31//51 32//51 10//51
f 31//52 22//52 32//52
f 22//53 5//53 32//53
f 29//54 30//54 9//54
f 29//55 21//55 30//55
f 21//56 4//56 30//56
f 27//57 28//57 8//57
f 27//58 19//58 28//58
f 19//59 3//59 28//59
f 25//60 26//60 7//60
f 25//61 15//61 26//61
f 15//62 2//62 26//62
f 23//63 24//63 11//63
f 23//64 16//64 24//64
f 16//65 6//65 24//65
f 17//66 22//66 6//66
f 17//67 20//67 22//67
f 20//68 5//68 22//68
f 20//69 21//69 5//69
f 20//70 18//70 21//70
f 18//71 4//71 21//71
f 18//72 19//72 4//72
f 18//73 13//73 19//73
f 13//74 3//74 19//74
f 16//75 17//75 6//75
f 16//76 14//76 17//76
f 14//77 1//77 17//77
f 13//78 15//78 3//78
f 13//79 14//79 15//79
f 14//80 2//80 15//80
f 43//24 55//24 56//24
f 44//18 58//18 56//18
f 43//21 60//21 55//21
f 43//33 62//33 60//33
f 43//30 59//30 62//30
f 44//42 65//42 58//42
f 45//39 67//39 57//39
f 46//36 69//36 61//36
f 47//48 71//48 63//48
f 48//45 73//45 64//45
f 44//54 68//54 65//54
f 45//51 70//51 67//51
f 46//63 72//63 69//63
f 47//60 74//60 71//60
f 48//57 66//57 73//57
f 49//69 80//69 75//69
f 50//66 82//66 76//66
f 51//2 83//2 77//2
f 52//81 84//81 78//81
f 53//72 81//72 79//72
f 81//3 54//3 84//3
f 81//73 84//73 79//73
f 79//74 84//74 52//74
f 84//1 54//1 83//1
f 84//79 83//79 78//79
f 78//80 83//80 51//80
f 83//77 54//77 82//77
f 83//76 82//76 77//76
f 77//75 82//75 50//75
f 82//5 54//5 80//5
f 82//67 80//67 76//67
f 76//82 80//82 49//82
f 80//4 54//4 81//4
f 80//70 81//70 75//70
f 75//71 81//71 53//71
f 66//8 53//8 79//8
f 66//58 79//58 73//58
f 73//59 79//59 52//59
f 74//7 52//7 78//7
f 74//61 78//61 71//61
f 71//62 78//62 51//62
f 72//6 51//6 77//6
f 72//64 77//64 69//64
f 69//65 77//65 50//65
f 70//10 50//10 76//10
f 70//52 76//52 67//52
f 67//53 76//53 49//53
f 68//9 49//9 75//9
f 68//55 75//55 65//55
f 65//56 75//56 53//56
f 73//12 52//12 74//12
f 73//46 74//46 64//46
f 64//47 74//47 47//47
f 71//11 51//11 72//11
f 71//49 72//49 63//49
f 63//50 72//50 46//50
f 69//15 50//15 70//15
f 69//37 70//37 61//37
f 61//38 70//38 45//38
f 67//14 49//14 68//14
f 67//40 68//40 57//40
f 57//41 68//41 44//41
f 65//13 53//13 66//13
f 65//43 66//43 58//43
f 58//44 66//44 48//44
f 59//17 48//17 64//17
f 59//31 64//31 62//31
f 62//83 64//83 47//83
f 62//16 47//16 63//16
f 62//34 63//34 60//34
f 60//35 63//35 46//35
f 60//20 46//20 61//20
f 60//22 61//22 55//22
f 55//23 61//23 45//23
f 58//29 48//29 59//29
f 58//28 59//28 56//28
f 56//27 59//27 43//27
f 55//84 45//84 57//84
f 55//25 57//25 56//25
f 56//26 57//26 44//26
